<?xml version="1.0" encoding="UTF-8"?><svg id="Working" xmlns="http://www.w3.org/2000/svg" viewBox="0 0 200 200"><defs><style>.cls-1{fill:#f8f5ec;}.cls-2{fill:#e64948;}.cls-3{fill:#173862;}</style></defs><circle class="cls-3" cx="100" cy="100" r="80"/><g><g><path class="cls-2" d="M148.46,67.35c-11.22,.28-26.02-.52-45.08,19.34,0,0,0,0,0,0l-2.04,1.94-10.81-13.18c-.47-.58-1.08-.62-1.74-.13l-8.48,8.16,10.89,12.95c.52,.73,1.24,.76,2,.08l8.07-7.22,6.38,7.22c.6,.68,1.32,.65,2.02-.08l4.06-3.78c10.7-11.11,22.25-21.95,34.81-25.05,.19-.05,.24-.27-.08-.26Z"/><path class="cls-2" d="M106.91,102.88l-8.07,7.23-6.38-7.23c-.6-.68-1.32-.65-2.02,.08l-13.91,12.95,6.58,8.16c.54,.5,1.16,.45,1.77-.13l13.88-13.18,10.81,13.18c.47,.58,1.08,.62,1.74,.13l8.48-8.16-10.89-12.95c-.52-.73-1.24-.76-2-.08Z"/></g><path class="cls-1" d="M133.49,134.21h-11.35l9.05-51.18h10.1l.07,3.2c2.92-2.86,6.27-4.18,10.79-4.18,8.57,0,13.86,5.57,13.86,14.69,0,5.57-1.81,11.42-4.74,15.25-3.13,4.11-7.94,6.41-13.44,6.41-4.67,0-8.57-1.46-10.86-4.11l-3.48,19.92Zm7.8-39.21c-1.25,2.37-2.23,6.2-2.23,8.71,0,3.97,2.3,6.34,6.13,6.34,3.34,0,5.5-1.39,7.03-4.53,1.18-2.44,2.16-6.75,2.16-9.61,0-3.41-2.09-5.43-5.57-5.43s-5.92,1.46-7.52,4.53Z"/><path class="cls-1" d="M42.36,83.02h10.1l.14,2.99c3.34-2.92,6.06-3.9,10.58-3.9,7.59,0,11.84,3.62,11.84,10.03,0,2.09-.35,5.36-1.04,9.05l-2.85,16.3h-11.35l3.13-17.76c.35-1.95,.56-3.69,.56-4.74,0-2.65-1.6-4.04-4.67-4.04-4.74,0-6.89,2.51-8.15,9.61l-2.99,16.92h-11.35l6.06-34.47Z"/></g></svg>